<?xml version="1.0" encoding="utf-8"?>
<svg version="1.0" width="440pt" height="70pt" preserveAspectRatio="xMidYMid meet" viewBox="0 0 440 70" xmlns="http://www.w3.org/2000/svg">
  <g transform="matrix(0.1, 0, 0, -0.1, 0.812977, 71.083374)" fill="#000" stroke="none">
    <path d="M120 608 c-65 -34 -84 -78 -89 -207 -6 -165 19 -240 92 -278 37 -19 189 -28 257 -16 l45 8 3 58 3 58 -28 -7 c-15 -4 -63 -8 -105 -8 -67 -1 -80 2 -101 22 -48 45 -48 212 0 260 24 24 28 25 129 19 l104 -6 0 53 c0 52 -1 54 -31 60 -17 3 -77 6 -133 6 -86 0 -109 -4 -146 -22z"/>
    <path d="M2592 610 c-34 -15 -48 -29 -65 -67 -19 -42 -22 -65 -22 -178 0 -120 2 -133 25 -175 16 -30 38 -51 63 -64 45 -22 176 -32 257 -19 l55 8 0 55 c0 49 -2 55 -20 52 -11 -1 -60 -3 -108 -5 -86 -2 -89 -1 -113 26 -22 26 -24 37 -24 128 0 94 1 101 26 126 26 26 27 26 135 20 l109 -6 0 50 c0 44 -3 51 -26 59 -14 6 -76 10 -137 10 -89 0 -121 -4 -155 -20z"/>
    <path d="M3484 558 c-8 -39 -12 -43 -41 -46 -33 -3 -33 -4 -33 -58 0 -51 1 -54 25 -54 l25 0 0 -110 c0 -127 12 -162 61 -179 36 -12 90 -14 138 -5 30 6 31 8 31 60 l0 54 -40 0 c-51 0 -62 20 -58 108 l3 67 43 3 42 3 0 55 0 54 -45 0 -45 0 0 45 0 45 -49 0 -48 0 -9 -42z"/>
    <path d="M574 500 c-70 -22 -104 -85 -104 -194 0 -151 70 -214 225 -204 133 9 180 63 180 208 0 146 -43 192 -184 197 -47 1 -100 -2 -117 -7z m159 -132 c24 -29 23 -102 -3 -128 -29 -29 -94 -27 -114 2 -17 23 -21 104 -8 125 23 36 95 37 125 1z"/>
    <path d="M994 499 c-39 -11 -54 -28 -65 -76 -11 -49 5 -109 34 -128 13 -8 59 -23 102 -33 55 -12 80 -22 80 -32 0 -12 -20 -15 -112 -14 l-113 2 0 -48 c0 -57 1 -58 114 -66 186 -15 256 17 256 116 0 86 -24 108 -140 130 -79 15 -103 32 -70 50 16 9 42 9 103 1 44 -6 84 -11 89 -11 4 0 8 22 8 50 0 48 -1 49 -37 59 -46 13 -206 13 -249 0z"/>
    <path d="M1360 310 l0 -200 65 0 65 0 0 118 c0 129 11 162 54 162 47 0 56 -26 56 -158 l0 -122 70 0 70 0 0 123 c0 107 2 126 18 140 25 22 48 21 72 -3 18 -18 20 -33 20 -140 l0 -120 65 0 65 0 0 151 c0 170 -10 208 -63 236 -47 24 -141 14 -173 -19 l-26 -25 -28 29 c-25 24 -36 28 -85 28 -49 0 -60 -4 -85 -29 l-29 -28 -3 26 c-3 25 -6 26 -65 29 l-63 3 0 -201z"/>
    <path d="M2143 499 c-70 -21 -109 -106 -101 -221 9 -118 58 -167 176 -176 172 -12 241 59 230 234 -5 80 -19 109 -72 148 -22 17 -44 21 -114 23 -48 1 -101 -2 -119 -8z m134 -110 c36 -14 43 -25 43 -79 0 -63 -21 -90 -71 -90 -53 0 -79 27 -79 81 0 49 14 77 43 89 29 12 31 12 64 -1z"/>
    <path d="M2960 368 c0 -79 5 -159 10 -179 27 -95 127 -116 253 -51 4 2 7 -3 7 -12 0 -13 12 -16 65 -16 l65 0 0 200 0 201 -67 -3 -68 -3 -3 -124 c-1 -71 -7 -130 -14 -138 -13 -16 -80 -17 -96 -1 -8 8 -12 54 -12 140 l0 128 -70 0 -70 0 0 -142z"/>
  </g>
  <text style="white-space: pre; fill: rgb(51, 51, 51); font-family: Arial, sans-serif; font-size: 47.6px;" x="378.697" y="52.219" transform="matrix(1.194435, 0, 0, 1.192512, -72.827866, -6.398726)">✨</text>
</svg>